<svg xmlns="http://www.w3.org/2000/svg" xmlns:xlink="http://www.w3.org/1999/xlink" xml:space="preserve" version="1.1" style="shape-rendering:geometricPrecision;text-rendering:geometricPrecision;image-rendering:optimizeQuality;" viewBox="0 0 333.33 416.66249999999997" x="0px" y="0px" fill-rule="evenodd" clip-rule="evenodd"><defs><style type="text/css">
   
    .fil0 {fill:black;fill-rule:nonzero}
   
  </style></defs><g><path class="fil0" d="M21.51 16.62c-3.12,-2.82 -3.36,-7.65 -0.54,-10.76 2.82,-3.12 7.65,-3.36 10.77,-0.54l38.84 35.19c5.62,5.09 9.89,10.91 12.74,17.36 2.87,6.47 4.33,13.53 4.33,21.06l0 100.07c0,10.06 4.11,19.2 10.73,25.82 6.62,6.62 15.76,10.73 25.82,10.73l182.46 0c4.23,0 7.66,3.43 7.66,7.66 0,4.23 -3.43,7.66 -7.66,7.66l-182.46 0c-14.29,0 -27.26,-5.83 -36.65,-15.22 -9.39,-9.39 -15.22,-22.36 -15.22,-36.65l0 -100.07c0,-5.41 -1.02,-10.39 -3.01,-14.9 -2.01,-4.53 -5.01,-8.62 -8.98,-12.21l-38.84 -35.19zm252.37 239.24c10.23,0 19.5,4.15 26.2,10.86 6.7,6.7 10.85,15.97 10.85,26.2 0,10.23 -4.15,19.5 -10.85,26.2 -6.71,6.71 -15.97,10.86 -26.2,10.86 -10.23,0 -19.5,-4.15 -26.2,-10.86 -6.71,-6.7 -10.85,-15.97 -10.85,-26.2 0,-10.23 4.15,-19.5 10.85,-26.2 6.7,-6.71 15.97,-10.86 26.2,-10.86zm15.38 21.68c-3.93,-3.93 -9.37,-6.37 -15.38,-6.37 -6.01,0 -11.44,2.43 -15.38,6.37 -3.94,3.94 -6.37,9.37 -6.37,15.38 0,6.01 2.43,11.44 6.37,15.38 3.93,3.93 9.37,6.37 15.38,6.37 6.01,0 11.44,-2.43 15.38,-6.37 3.93,-3.94 6.37,-9.37 6.37,-15.38 0,-6 -2.44,-11.44 -6.37,-15.38zm-165.11 -21.68c10.23,0 19.5,4.15 26.2,10.86 6.7,6.7 10.85,15.97 10.85,26.2 0,10.23 -4.15,19.5 -10.85,26.2 -6.71,6.71 -15.97,10.86 -26.2,10.86 -10.23,0 -19.5,-4.15 -26.2,-10.86 -6.71,-6.7 -10.85,-15.97 -10.85,-26.2 0,-10.23 4.15,-19.5 10.85,-26.2 6.7,-6.71 15.97,-10.86 26.2,-10.86zm15.38 21.68c-3.93,-3.93 -9.37,-6.37 -15.38,-6.37 -6.01,0 -11.44,2.43 -15.38,6.37 -3.94,3.94 -6.37,9.37 -6.37,15.38 0,6.01 2.43,11.44 6.37,15.38 3.93,3.93 9.37,6.37 15.38,6.37 6.01,0 11.44,-2.43 15.38,-6.37 3.93,-3.94 6.37,-9.37 6.37,-15.38 0,-6 -2.44,-11.44 -6.37,-15.38z"/></g></svg>
